<svg width="21" height="19" viewBox="0 0 21 19" fill="none" xmlns="http://www.w3.org/2000/svg">
<path fill-rule="evenodd" clip-rule="evenodd" d="M9.5 16.1111C8.97867 16.1111 8.55556 15.688 8.55556 15.1667C8.55556 14.6453 8.97867 14.2222 9.5 14.2222C10.0213 14.2222 10.4444 14.6453 10.4444 15.1667C10.4444 15.688 10.0213 16.1111 9.5 16.1111ZM18.9444 14.2222H12.1586C11.7676 13.1257 10.7297 12.3333 9.5 12.3333C8.27033 12.3333 7.23239 13.1257 6.84139 14.2222H1.94444C1.42217 14.2222 1 14.6444 1 15.1667C1 15.6889 1.42217 16.1111 1.94444 16.1111H6.84139C7.23239 17.2076 8.27033 18 9.5 18C10.7297 18 11.7676 17.2076 12.1586 16.1111H18.9444C19.4667 16.1111 19.8889 15.6889 19.8889 15.1667C19.8889 14.6444 19.4667 14.2222 18.9444 14.2222ZM17.0556 10.4444C16.5342 10.4444 16.1111 10.0213 16.1111 9.5C16.1111 8.97867 16.5342 8.55556 17.0556 8.55556C17.5769 8.55556 18 8.97867 18 9.5C18 10.0213 17.5769 10.4444 17.0556 10.4444ZM17.0556 6.66667C15.8259 6.66667 14.7879 7.45906 14.3969 8.55556H1.94444C1.42217 8.55556 1 8.97772 1 9.5C1 10.0223 1.42217 10.4444 1.94444 10.4444H14.3969C14.7879 11.5409 15.8259 12.3333 17.0556 12.3333C18.6177 12.3333 19.8889 11.0621 19.8889 9.5C19.8889 7.93789 18.6177 6.66667 17.0556 6.66667ZM5.72222 2.88889C6.24356 2.88889 6.66667 3.312 6.66667 3.83333C6.66667 4.35467 6.24356 4.77778 5.72222 4.77778C5.20089 4.77778 4.77778 4.35467 4.77778 3.83333C4.77778 3.312 5.20089 2.88889 5.72222 2.88889ZM1.94444 4.77778H3.06361C3.45461 5.87428 4.49256 6.66667 5.72222 6.66667C6.95189 6.66667 7.98983 5.87428 8.38083 4.77778H18.9444C19.4667 4.77778 19.8889 4.35561 19.8889 3.83333C19.8889 3.31106 19.4667 2.88889 18.9444 2.88889H8.38083C7.98983 1.79239 6.95189 1 5.72222 1C4.49256 1 3.45461 1.79239 3.06361 2.88889H1.94444C1.42217 2.88889 1 3.31106 1 3.83333C1 4.35561 1.42217 4.77778 1.94444 4.77778Z" fill="white"/>
<path d="M12.1586 14.2222L11.6877 14.3902L11.8061 14.7222H12.1586V14.2222ZM6.84139 14.2222V14.7222H7.19393L7.31234 14.3902L6.84139 14.2222ZM6.84139 16.1111L7.31234 15.9432L7.19393 15.6111H6.84139V16.1111ZM12.1586 16.1111V15.6111H11.8061L11.6877 15.9432L12.1586 16.1111ZM14.3969 8.55556V9.05556H14.7495L14.8679 8.72349L14.3969 8.55556ZM14.3969 10.4444L14.8679 10.2765L14.7495 9.94444H14.3969V10.4444ZM3.06361 4.77778L3.53456 4.60984L3.41615 4.27778H3.06361V4.77778ZM8.38083 4.77778V4.27778H8.02829L7.90988 4.60984L8.38083 4.77778ZM8.38083 2.88889L7.90988 3.05683L8.02829 3.38889H8.38083V2.88889ZM3.06361 2.88889V3.38889H3.41615L3.53456 3.05683L3.06361 2.88889ZM9.5 15.6111C9.25481 15.6111 9.05556 15.4119 9.05556 15.1667H8.05556C8.05556 15.9641 8.70252 16.6111 9.5 16.6111V15.6111ZM9.05556 15.1667C9.05556 14.9215 9.25481 14.7222 9.5 14.7222V13.7222C8.70252 13.7222 8.05556 14.3692 8.05556 15.1667H9.05556ZM9.5 14.7222C9.74519 14.7222 9.94444 14.9215 9.94444 15.1667H10.9444C10.9444 14.3692 10.2975 13.7222 9.5 13.7222V14.7222ZM9.94444 15.1667C9.94444 15.4119 9.74519 15.6111 9.5 15.6111V16.6111C10.2975 16.6111 10.9444 15.9641 10.9444 15.1667H9.94444ZM18.9444 13.7222H12.1586V14.7222H18.9444V13.7222ZM12.6296 14.0543C12.1713 12.7691 10.9519 11.8333 9.5 11.8333V12.8333C10.5074 12.8333 11.364 13.4824 11.6877 14.3902L12.6296 14.0543ZM9.5 11.8333C8.04811 11.8333 6.82873 12.7691 6.37044 14.0543L7.31234 14.3902C7.63605 13.4824 8.49256 12.8333 9.5 12.8333V11.8333ZM6.84139 13.7222H1.94444V14.7222H6.84139V13.7222ZM1.94444 13.7222C1.14602 13.7222 0.5 14.3682 0.5 15.1667H1.5C1.5 14.9205 1.69831 14.7222 1.94444 14.7222V13.7222ZM0.5 15.1667C0.5 15.9651 1.14602 16.6111 1.94444 16.6111V15.6111C1.69831 15.6111 1.5 15.4128 1.5 15.1667H0.5ZM1.94444 16.6111H6.84139V15.6111H1.94444V16.6111ZM6.37044 16.279C6.82873 17.5643 8.04811 18.5 9.5 18.5V17.5C8.49256 17.5 7.63605 16.851 7.31234 15.9432L6.37044 16.279ZM9.5 18.5C10.9519 18.5 12.1713 17.5643 12.6296 16.279L11.6877 15.9432C11.364 16.851 10.5074 17.5 9.5 17.5V18.5ZM12.1586 16.6111H18.9444V15.6111H12.1586V16.6111ZM18.9444 16.6111C19.7429 16.6111 20.3889 15.9651 20.3889 15.1667H19.3889C19.3889 15.4128 19.1906 15.6111 18.9444 15.6111V16.6111ZM20.3889 15.1667C20.3889 14.3682 19.7429 13.7222 18.9444 13.7222V14.7222C19.1906 14.7222 19.3889 14.9205 19.3889 15.1667H20.3889ZM17.0556 9.94444C16.8104 9.94444 16.6111 9.74519 16.6111 9.5H15.6111C15.6111 10.2975 16.2581 10.9444 17.0556 10.9444V9.94444ZM16.6111 9.5C16.6111 9.25481 16.8104 9.05556 17.0556 9.05556V8.05556C16.2581 8.05556 15.6111 8.70252 15.6111 9.5H16.6111ZM17.0556 9.05556C17.3007 9.05556 17.5 9.25481 17.5 9.5H18.5C18.5 8.70252 17.853 8.05556 17.0556 8.05556V9.05556ZM17.5 9.5C17.5 9.74519 17.3007 9.94444 17.0556 9.94444V10.9444C17.853 10.9444 18.5 10.2975 18.5 9.5H17.5ZM17.0556 6.16667C15.6037 6.16667 14.3843 7.1024 13.926 8.38762L14.8679 8.72349C15.1916 7.81571 16.0481 7.16667 17.0556 7.16667V6.16667ZM14.3969 8.05556H1.94444V9.05556H14.3969V8.05556ZM1.94444 8.05556C1.14602 8.05556 0.5 8.70158 0.5 9.5H1.5C1.5 9.25386 1.69831 9.05556 1.94444 9.05556V8.05556ZM0.5 9.5C0.5 10.2984 1.14602 10.9444 1.94444 10.9444V9.94444C1.69831 9.94444 1.5 9.74613 1.5 9.5H0.5ZM1.94444 10.9444H14.3969V9.94444H1.94444V10.9444ZM13.926 10.6124C14.3843 11.8976 15.6037 12.8333 17.0556 12.8333V11.8333C16.0481 11.8333 15.1916 11.1843 14.8679 10.2765L13.926 10.6124ZM17.0556 12.8333C18.8938 12.8333 20.3889 11.3383 20.3889 9.5H19.3889C19.3889 10.786 18.3415 11.8333 17.0556 11.8333V12.8333ZM20.3889 9.5C20.3889 7.66175 18.8938 6.16667 17.0556 6.16667V7.16667C18.3415 7.16667 19.3889 8.21403 19.3889 9.5H20.3889ZM5.72222 3.38889C5.96741 3.38889 6.16667 3.58814 6.16667 3.83333H7.16667C7.16667 3.03586 6.5197 2.38889 5.72222 2.38889V3.38889ZM6.16667 3.83333C6.16667 4.07852 5.96741 4.27778 5.72222 4.27778V5.27778C6.5197 5.27778 7.16667 4.63081 7.16667 3.83333H6.16667ZM5.72222 4.27778C5.47703 4.27778 5.27778 4.07852 5.27778 3.83333H4.27778C4.27778 4.63081 4.92475 5.27778 5.72222 5.27778V4.27778ZM5.27778 3.83333C5.27778 3.58814 5.47703 3.38889 5.72222 3.38889V2.38889C4.92475 2.38889 4.27778 3.03586 4.27778 3.83333H5.27778ZM1.94444 5.27778H3.06361V4.27778H1.94444V5.27778ZM2.59266 4.94571C3.05095 6.23094 4.27033 7.16667 5.72222 7.16667V6.16667C4.71478 6.16667 3.85827 5.51762 3.53456 4.60984L2.59266 4.94571ZM5.72222 7.16667C7.17411 7.16667 8.39349 6.23094 8.85179 4.94571L7.90988 4.60984C7.58618 5.51762 6.72966 6.16667 5.72222 6.16667V7.16667ZM8.38083 5.27778H18.9444V4.27778H8.38083V5.27778ZM18.9444 5.27778C19.7429 5.27778 20.3889 4.63175 20.3889 3.83333H19.3889C19.3889 4.07947 19.1906 4.27778 18.9444 4.27778V5.27778ZM20.3889 3.83333C20.3889 3.03491 19.7429 2.38889 18.9444 2.38889V3.38889C19.1906 3.38889 19.3889 3.5872 19.3889 3.83333H20.3889ZM18.9444 2.38889H8.38083V3.38889H18.9444V2.38889ZM8.85179 2.72095C8.39349 1.43573 7.17411 0.5 5.72222 0.5V1.5C6.72966 1.5 7.58618 2.14905 7.90988 3.05683L8.85179 2.72095ZM5.72222 0.5C4.27033 0.5 3.05095 1.43573 2.59266 2.72095L3.53456 3.05683C3.85827 2.14905 4.71478 1.5 5.72222 1.5V0.5ZM3.06361 2.38889H1.94444V3.38889H3.06361V2.38889ZM1.94444 2.38889C1.14602 2.38889 0.5 3.03491 0.5 3.83333H1.5C1.5 3.5872 1.69831 3.38889 1.94444 3.38889V2.38889ZM0.5 3.83333C0.5 4.63175 1.14602 5.27778 1.94444 5.27778V4.27778C1.69831 4.27778 1.5 4.07947 1.5 3.83333H0.5Z" fill="#333333"/>
</svg>
