<svg width="20" height="18" viewBox="0 0 20 18" fill="none" xmlns="http://www.w3.org/2000/svg">
<path d="M1 4.55556H14.68C16.1921 4.55556 16.9482 4.55556 17.5258 4.8462C18.0338 5.10187 18.4469 5.50982 18.7057 6.01158C19 6.58201 19 7.32875 19 8.82222V12.7333C19 14.2268 19 14.9735 18.7057 15.544C18.4469 16.0457 18.0338 16.4537 17.5258 16.7094C16.9482 17 16.1921 17 14.68 17H5.32C3.80786 17 3.05179 17 2.47423 16.7094C1.96619 16.4537 1.55314 16.0457 1.29428 15.544C1 14.9735 1 14.2268 1 12.7333V4.55556Z" fill="white"/>
<path d="M10.9 4.55556L9.89601 2.57237C9.60706 2.0016 9.46258 1.7162 9.24703 1.5077C9.05642 1.32332 8.82669 1.18309 8.57447 1.09716C8.28925 1 7.96619 1 7.32006 1H3.88C2.87191 1 2.36786 1 1.98282 1.19377C1.64413 1.36421 1.36876 1.63617 1.19619 1.97068C1 2.35097 1 2.8488 1 3.84444V4.55556M1 4.55556H14.68C16.1921 4.55556 16.9482 4.55556 17.5258 4.8462C18.0338 5.10187 18.4469 5.50982 18.7057 6.01158C19 6.58201 19 7.32875 19 8.82222V12.7333C19 14.2268 19 14.9735 18.7057 15.544C18.4469 16.0457 18.0338 16.4537 17.5258 16.7094C16.9482 17 16.1921 17 14.68 17H5.32C3.80786 17 3.05179 17 2.47423 16.7094C1.96619 16.4537 1.55314 16.0457 1.29428 15.544C1 14.9735 1 14.2268 1 12.7333V4.55556Z" stroke="#333333" stroke-linecap="round" stroke-linejoin="round"/>
</svg>
