<svg width="20" height="19" viewBox="0 0 20 19" fill="none" xmlns="http://www.w3.org/2000/svg">
<path fill-rule="evenodd" clip-rule="evenodd" d="M13.6 9.05263C13.1032 9.05263 12.7 8.65179 12.7 8.1579C12.7 7.664 13.1032 7.26316 13.6 7.26316C14.0968 7.26316 14.5 7.664 14.5 8.1579C14.5 8.65179 14.0968 9.05263 13.6 9.05263ZM10.0001 9.05263C9.5033 9.05263 9.1001 8.65179 9.1001 8.1579C9.1001 7.664 9.5033 7.26316 10.0001 7.26316C10.4969 7.26316 10.9001 7.664 10.9001 8.1579C10.9001 8.65179 10.4969 9.05263 10.0001 9.05263ZM6.4 9.05263C5.9032 9.05263 5.5 8.65179 5.5 8.1579C5.5 7.664 5.9032 7.26316 6.4 7.26316C6.8968 7.26316 7.3 7.664 7.3 8.1579C7.3 8.65179 6.8968 9.05263 6.4 9.05263ZM16.3 1H3.7C2.2114 1 1 2.20432 1 3.68421V17.1053C1 17.4274 1.1746 17.7253 1.4563 17.8837C1.594 17.9615 1.747 18 1.9 18C2.0602 18 2.2204 17.9579 2.3635 17.8721L6.4351 15.4437C6.5755 15.3596 6.7357 15.3158 6.8986 15.3158H16.3C17.7886 15.3158 19 14.1115 19 12.6316V3.68421C19 2.20432 17.7886 1 16.3 1Z" fill="white"/>
<path d="M1.4563 17.8837L1.70236 17.4484L1.70133 17.4478L1.4563 17.8837ZM2.3635 17.8721L2.10739 17.4426L2.10618 17.4434L2.3635 17.8721ZM6.4351 15.4437L6.69121 15.8732L6.69205 15.8727L6.4351 15.4437ZM13.6 8.55263C13.3765 8.55263 13.2 8.37289 13.2 8.1579H12.2C12.2 8.9307 12.8298 9.55263 13.6 9.55263V8.55263ZM13.2 8.1579C13.2 7.94291 13.3765 7.76316 13.6 7.76316V6.76316C12.8298 6.76316 12.2 7.3851 12.2 8.1579H13.2ZM13.6 7.76316C13.8234 7.76316 14 7.94291 14 8.1579H15C15 7.3851 14.3701 6.76316 13.6 6.76316V7.76316ZM14 8.1579C14 8.37289 13.8234 8.55263 13.6 8.55263V9.55263C14.3701 9.55263 15 8.9307 15 8.1579H14ZM10.0001 8.55263C9.77667 8.55263 9.6001 8.37289 9.6001 8.1579H8.6001C8.6001 8.9307 9.22992 9.55263 10.0001 9.55263V8.55263ZM9.6001 8.1579C9.6001 7.94291 9.77667 7.76316 10.0001 7.76316V6.76316C9.22992 6.76316 8.6001 7.3851 8.6001 8.1579H9.6001ZM10.0001 7.76316C10.2235 7.76316 10.4001 7.94291 10.4001 8.1579H11.4001C11.4001 7.3851 10.7703 6.76316 10.0001 6.76316V7.76316ZM10.4001 8.1579C10.4001 8.37289 10.2235 8.55263 10.0001 8.55263V9.55263C10.7703 9.55263 11.4001 8.9307 11.4001 8.1579H10.4001ZM6.4 8.55263C6.17657 8.55263 6 8.37289 6 8.1579H5C5 8.9307 5.62983 9.55263 6.4 9.55263V8.55263ZM6 8.1579C6 7.94291 6.17657 7.76316 6.4 7.76316V6.76316C5.62983 6.76316 5 7.3851 5 8.1579H6ZM6.4 7.76316C6.62343 7.76316 6.8 7.94291 6.8 8.1579H7.8C7.8 7.3851 7.17017 6.76316 6.4 6.76316V7.76316ZM6.8 8.1579C6.8 8.37289 6.62343 8.55263 6.4 8.55263V9.55263C7.17017 9.55263 7.8 8.9307 7.8 8.1579H6.8ZM16.3 0.5H3.7V1.5H16.3V0.5ZM3.7 0.5C1.93803 0.5 0.5 1.92541 0.5 3.68421H1.5C1.5 2.48322 2.48477 1.5 3.7 1.5V0.5ZM0.5 3.68421V17.1053H1.5V3.68421H0.5ZM0.5 17.1053C0.5 17.6087 0.772643 18.0729 1.21127 18.3195L1.70133 17.4478C1.57656 17.3777 1.5 17.246 1.5 17.1053H0.5ZM1.21024 18.319C1.42506 18.4404 1.66316 18.5 1.9 18.5V17.5C1.83084 17.5 1.76294 17.4827 1.70236 17.4484L1.21024 18.319ZM1.9 18.5C2.14793 18.5 2.39753 18.4348 2.62082 18.3008L2.10618 17.4434C2.04327 17.4811 1.97247 17.5 1.9 17.5V18.5ZM2.61961 18.3015L6.69121 15.8732L6.17899 15.0143L2.10739 17.4426L2.61961 18.3015ZM6.69205 15.8727C6.75416 15.8355 6.82545 15.8158 6.8986 15.8158V14.8158C6.64595 14.8158 6.39684 14.8838 6.17815 15.0148L6.69205 15.8727ZM6.8986 15.8158H16.3V14.8158H6.8986V15.8158ZM16.3 15.8158C18.062 15.8158 19.5 14.3904 19.5 12.6316H18.5C18.5 13.8326 17.5152 14.8158 16.3 14.8158V15.8158ZM19.5 12.6316V3.68421H18.5V12.6316H19.5ZM19.5 3.68421C19.5 1.92541 18.062 0.5 16.3 0.5V1.5C17.5152 1.5 18.5 2.48322 18.5 3.68421H19.5Z" fill="#333333"/>
</svg>
