<svg width="19" height="20" viewBox="0 0 19 20" fill="none" xmlns="http://www.w3.org/2000/svg">
<path d="M1 8.97345C1 8.42157 1 8.14563 1.06991 7.89151C1.13185 7.66641 1.23362 7.4547 1.37025 7.26677C1.52448 7.05461 1.73858 6.8852 2.16676 6.54638L8.57227 1.4777C8.90407 1.21514 9.06998 1.08386 9.25317 1.03339C9.41481 0.988868 9.58519 0.988868 9.74683 1.03339C9.93002 1.08386 10.0959 1.21514 10.4277 1.4777L16.8332 6.54638C17.2614 6.8852 17.4755 7.05461 17.6298 7.26677C17.7664 7.4547 17.8682 7.66641 17.9301 7.89151C18 8.14563 18 8.42157 18 8.97345V15.9252C18 17.0015 18 17.5396 17.7941 17.9507C17.613 18.3123 17.3241 18.6063 16.9686 18.7905C16.5646 19 16.0357 19 14.9778 19H4.02222C2.96435 19 2.43541 19 2.03135 18.7905C1.67593 18.6063 1.38697 18.3123 1.20588 17.9507C1 17.5396 1 17.0015 1 15.9252V8.97345Z" fill="white"/>
<path d="M5.72222 15.1565H13.2778M8.57227 1.4777L2.16676 6.54638C1.73858 6.8852 1.52448 7.05461 1.37025 7.26677C1.23362 7.4547 1.13185 7.66641 1.06991 7.89151C1 8.14563 1 8.42157 1 8.97345V15.9252C1 17.0015 1 17.5396 1.20588 17.9507C1.38697 18.3123 1.67593 18.6063 2.03135 18.7905C2.43541 19 2.96435 19 4.02222 19H14.9778C16.0357 19 16.5646 19 16.9686 18.7905C17.3241 18.6063 17.613 18.3123 17.7941 17.9507C18 17.5396 18 17.0015 18 15.9252V8.97345C18 8.42157 18 8.14563 17.9301 7.89151C17.8682 7.66641 17.7664 7.4547 17.6298 7.26677C17.4755 7.05461 17.2614 6.8852 16.8332 6.54638L10.4277 1.4777C10.0959 1.21514 9.93002 1.08386 9.74683 1.03339C9.58519 0.988868 9.41481 0.988868 9.25317 1.03339C9.06998 1.08386 8.90407 1.21514 8.57227 1.4777Z" stroke="#333333" stroke-linecap="round" stroke-linejoin="round"/>
</svg>
